<svg id="Layer_1" data-name="Layer 1" xmlns="http://www.w3.org/2000/svg" viewBox="0 0 253.1 332.98"><defs><style>.cls-1{fill:#09436a;}</style></defs><title>STI Bug-RGB</title><path class="cls-1" d="M274.78,13.14c5,2.55,5.91,7.45,3.51,12.19-61.23,117.14-87,164.68-93.14,177.43-4.49,9.27-16.41,9.15-21.73,0-2.8-4.81-31.88-56.55-39.48-72.89-9.29-20,24.38-32.07,33.48-15.06,2.7,5.06,8.74,18.61,11.88,24.89,6.54,13.07,21.08,13.16,28.86-.75,5.46-9.77,60.86-114.68,64.33-121.1C265,13.08,269.75,10.56,274.78,13.14Z" transform="translate(-52.98 -12.11)"/><path class="cls-1" d="M56.79,57.85v2.39h174.4c.4-.8.85-1.6,1.25-2.39Z" transform="translate(-52.98 -12.11)"/><path class="cls-1" d="M296.91,60.24V57.85H270c-.41.8-.84,1.59-1.25,2.39Z" transform="translate(-52.98 -12.11)"/><path class="cls-1" d="M296.91,80.4v-4H260.34c-.69,1.36-1.43,2.69-2.11,4Z" transform="translate(-52.98 -12.11)"/><path class="cls-1" d="M56.79,76.36v4H220.5c.69-1.35,1.46-2.7,2.15-4Z" transform="translate(-52.98 -12.11)"/><path class="cls-1" d="M56.79,97.82v4.76h152c.81-1.57,1.69-3.15,2.51-4.76Z" transform="translate(-52.98 -12.11)"/><path class="cls-1" d="M296.91,102.58V97.82H249.07c-.81,1.6-1.69,3.19-2.48,4.76Z" transform="translate(-52.98 -12.11)"/><path class="cls-1" d="M56.79,120.24v6h57.85a18.32,18.32,0,0,1-.15-6Z" transform="translate(-52.98 -12.11)"/><path class="cls-1" d="M171.07,126.22H196.3c1-1.89,2.06-3.87,3.17-6H168.41S171.12,126.25,171.07,126.22Z" transform="translate(-52.98 -12.11)"/><path class="cls-1" d="M296.91,126.22v-6h-59.6c-1.05,2-2.1,4-3.11,6Z" transform="translate(-52.98 -12.11)"/><path class="cls-1" d="M56.79,143.39v7.29h69c-1.35-2.59-2.68-5-3.8-7.29Z" transform="translate(-52.98 -12.11)"/><path class="cls-1" d="M296.91,150.68v-7.29H224.86c-1.3,2.51-2.6,5-3.83,7.29Z" transform="translate(-52.98 -12.11)"/><path class="cls-1" d="M296.91,179v-9.68H211.22c-1.71,3.5-3.58,6.72-5,9.68Z" transform="translate(-52.98 -12.11)"/><path class="cls-1" d="M56.79,169.27V179h84.4c-1.76-3.15-3.54-6.41-5.34-9.68Z" transform="translate(-52.98 -12.11)"/><path class="cls-1" d="M190,209.65H296.91V196.07H197.25S190.84,209.13,190,209.65Z" transform="translate(-52.98 -12.11)"/><path class="cls-1" d="M156.9,207c-.78-1.25-3-5.3-6.2-10.94H56.79v13.58h102A25.49,25.49,0,0,1,156.9,207Z" transform="translate(-52.98 -12.11)"/><path class="cls-1" d="M290.51,331.35a7.5,7.5,0,0,1,1.78-2.49,8.05,8.05,0,0,1,2.59-1.58,8.72,8.72,0,0,1,6.15,0,8,8,0,0,1,2.59,1.58,7.52,7.52,0,0,1,1.79,2.49,7.77,7.77,0,0,1,.67,3.25,7.88,7.88,0,0,1-.67,3.28,7.63,7.63,0,0,1-1.79,2.49A7.8,7.8,0,0,1,301,342a8.87,8.87,0,0,1-6.15,0,7.91,7.91,0,0,1-2.59-1.59,7.6,7.6,0,0,1-1.78-2.49,7.72,7.72,0,0,1-.67-3.28A7.62,7.62,0,0,1,290.51,331.35Zm1.95,5.75a6,6,0,0,0,1.27,2,5.75,5.75,0,0,0,1.89,1.3,5.93,5.93,0,0,0,2.34.47,5.82,5.82,0,0,0,2.31-.47,5.55,5.55,0,0,0,1.89-1.3,6,6,0,0,0,1.28-2,6.4,6.4,0,0,0,.48-2.5,6.27,6.27,0,0,0-.48-2.48,6,6,0,0,0-1.28-2,5.67,5.67,0,0,0-1.89-1.29,5.81,5.81,0,0,0-2.31-.46,5.84,5.84,0,0,0-5.5,3.71,6.44,6.44,0,0,0-.46,2.48A6.58,6.58,0,0,0,292.46,337.1Zm5.69-6.94a4.72,4.72,0,0,1,2.57.59,2.26,2.26,0,0,1,.9,2,3,3,0,0,1-.18,1.05,1.86,1.86,0,0,1-.5.71,2.34,2.34,0,0,1-.74.42,3.77,3.77,0,0,1-.91.19l2.37,3.87h-1.84l-2.16-3.78h-1.1V339h-1.75v-8.86Zm0,3.7a3.14,3.14,0,0,0,1.24-.21c.33-.14.49-.48.49-1a.9.9,0,0,0-.17-.57,1.08,1.08,0,0,0-.43-.33,2.23,2.23,0,0,0-.59-.16,4.64,4.64,0,0,0-.63,0h-1.48v2.32Z" transform="translate(-52.98 -12.11)"/><path class="cls-1" d="M80,313.63a18.7,18.7,0,0,0,5.66,6.64A24.43,24.43,0,0,0,94,324a39.13,39.13,0,0,0,9.84,1.22,50.12,50.12,0,0,0,7.37-.57,25.61,25.61,0,0,0,7.37-2.21,16.15,16.15,0,0,0,5.74-4.51,11.29,11.29,0,0,0,2.29-7.29,10.25,10.25,0,0,0-3-7.7,24,24,0,0,0-8-4.92,80.49,80.49,0,0,0-11.14-3.44q-6.22-1.47-12.62-3.28a112.22,112.22,0,0,1-12.78-4,43.76,43.76,0,0,1-11.14-6.15,27.54,27.54,0,0,1-11-23.1,30.6,30.6,0,0,1,3.85-15.65,34.74,34.74,0,0,1,10.07-11.06,44,44,0,0,1,14.1-6.56,60.37,60.37,0,0,1,15.73-2.13,74.77,74.77,0,0,1,17.62,2,44,44,0,0,1,15,6.64,33.62,33.62,0,0,1,10.41,11.71q3.84,7.14,3.85,17.29H122.63a20.79,20.79,0,0,0-2.21-8.68,14.51,14.51,0,0,0-5-5.41,21,21,0,0,0-7.13-2.78,43.65,43.65,0,0,0-8.77-.82,30.56,30.56,0,0,0-6.22.65,16.73,16.73,0,0,0-5.66,2.29,14.18,14.18,0,0,0-4.17,4.1A11,11,0,0,0,81.83,256a10.56,10.56,0,0,0,1.3,5.57q1.32,2.13,5.17,3.93A64.45,64.45,0,0,0,99,269.06q6.8,1.8,17.78,4.59,3.27.64,9.1,2.37a44,44,0,0,1,11.55,5.49,34.79,34.79,0,0,1,9.91,10.08q4.19,6.32,4.18,16.14a35.85,35.85,0,0,1-3.11,14.91,32.48,32.48,0,0,1-9.26,11.88,44.51,44.51,0,0,1-15.24,7.79,72,72,0,0,1-21.06,2.78A74,74,0,0,1,84,342.72,47.16,47.16,0,0,1,68,335.26a36.7,36.7,0,0,1-11.06-12.94q-4.1-7.87-3.94-18.68H77.89A21.44,21.44,0,0,0,80,313.63Z" transform="translate(-52.98 -12.11)"/><path class="cls-1" d="M150.71,247.1V225.47h95.86V247.1H211.5v95.37H185.77V247.1Z" transform="translate(-52.98 -12.11)"/><path class="cls-1" d="M282.66,225.47v117H256.94v-117Z" transform="translate(-52.98 -12.11)"/></svg>